<?xml version="1.0" encoding="utf-8" ?><svg xmlns="http://www.w3.org/2000/svg" xmlns:xlink="http://www.w3.org/1999/xlink" width="240" height="246" viewBox="0 0 240 246"><clipPath id="cl_8"><rect x="0.00012207031" width="240.00012" height="245.99997"/></clipPath><g clip-path="url(#cl_8)"><path transform="matrix(1.04348 0 0 1.04237 -1721.74 -314.797)" d="M1758.93 365.884C1760.32 365.67 1761.72 365.512 1763.12 365.41C1776.19 364.505 1793.48 371.2 1803.15 379.782C1813.7 389.105 1818.78 402.901 1820.39 416.592C1823.05 439.21 1823.75 462.001 1825.14 484.725C1842.5 490.967 1838.88 505.862 1838.34 521.173C1816.97 521.419 1795.31 521.24 1773.91 521.241L1692.08 521.272C1689.99 505.332 1687.83 491.294 1705.24 484.871C1705.75 466.603 1707.41 448.278 1708.25 430.144C1709.88 394.793 1721.72 372.7 1758.93 365.884ZM1819.73 485.569C1819.69 479.624 1819.07 473.355 1818.64 467.392C1815.86 429.492 1820.64 374.706 1768.72 371.419C1754.98 370.457 1741.43 375.037 1731.09 384.136C1716.12 397.563 1715.21 415.095 1713.62 433.782C1712.16 450.978 1711.22 468.328 1710.13 485.552L1751.23 485.62L1757 485.54L1772.92 485.529L1779.31 485.6L1819.73 485.569ZM1697.16 515.688L1803.28 515.615L1832.49 515.54C1833.26 509.019 1834.4 499.985 1830.08 494.407C1828.2 491.977 1822.43 491.544 1819.41 491.437C1789.14 490.363 1758.17 490.461 1727.9 490.794C1711.63 490.884 1696.18 486.692 1696.85 508.125C1696.93 510.647 1697.03 513.169 1697.16 515.688Z"/><path fill="#BD0804" transform="matrix(1.04348 0 0 1.04237 -1721.74 -314.797)" d="M1723.48 462.941C1722.32 455.024 1722.66 447.484 1721.84 440.094C1718.67 411.581 1736.03 419.798 1753.16 429.356C1763.2 421.965 1766.55 421.767 1776.9 429.022C1784.34 425.616 1797.11 418.342 1804.91 421.195C1811.57 426.295 1807.6 454.921 1807.38 464.081L1779.24 453.552C1779.18 464.235 1779.21 474.918 1779.31 485.6L1772.92 485.529C1773.03 474.661 1776.37 434.938 1766.85 429.557C1752.03 430.092 1757.22 472.883 1757 485.54L1751.23 485.62L1751.16 453.685C1742.05 457.22 1733.07 461.103 1723.48 462.941ZM1778.9 434.65C1778.45 444.34 1777.65 446.384 1786.96 449.959L1801.96 455.941C1802.03 450.956 1803.1 428.22 1800.31 425.645L1778.9 434.65ZM1728.45 455.947L1746.34 449.012C1752.85 444.772 1751.6 441.9 1751.26 434.51L1728.59 424.971L1728.45 455.947Z"/><path fill="#BD0804" transform="matrix(1.04348 0 0 1.04237 -1721.74 -314.797)" d="M1707.09 331.852C1716.27 334.183 1728.48 359.399 1730.69 368.457C1719.7 366.189 1709.64 341.885 1707.09 331.852Z"/><path fill="#BD0804" transform="matrix(1.04348 0 0 1.04237 -1721.74 -314.797)" d="M1818.6 332.234C1819.7 332.947 1821.56 333.803 1821.6 334.756C1821.87 342.368 1807.81 362.6 1804.07 368.57C1802.67 367.683 1801.01 367.089 1800.91 365.784C1800.31 358.112 1814.6 338.409 1818.6 332.234Z"/><path fill="#BD0804" transform="matrix(1.04348 0 0 1.04237 -1721.74 -314.797)" d="M1667.9 372.771C1673.05 373.413 1688.71 381.339 1693.55 384.569C1699.35 388.436 1702.4 389.099 1703.92 395.651C1694.95 394.929 1670.64 382.109 1667.9 372.771Z"/><path fill="#BD0804" transform="matrix(1.04348 0 0 1.04237 -1721.74 -314.797)" d="M1858.36 372.991C1859.53 373.581 1859.79 374.099 1860.7 375.104L1860.34 377.349C1855.32 383.41 1838.06 391.634 1830.41 395.663C1828.23 395.357 1829.21 395.794 1827.52 394.012L1827.83 391.808C1832.29 385.927 1851.31 376.705 1858.36 372.991Z"/><path fill="#BD0804" transform="matrix(1.04348 0 0 1.04237 -1721.74 -314.797)" d="M1762.58 316.863C1764.88 317.518 1765 317.502 1766.53 319.238C1769.69 327.133 1768.43 348.404 1767.44 357.261C1766.29 356.85 1764.27 356.387 1763.82 355.531C1759.69 347.743 1762.12 325.124 1762.58 316.863Z"/><path fill="#BD0804" transform="matrix(1.04348 0 0 1.04237 -1721.74 -314.797)" d="M1832.27 428.718C1841.92 428.231 1858.15 426.711 1867.48 429.19C1870.1 429.888 1870.32 431.775 1871.24 434.057C1861 434.516 1846.98 435.763 1837.03 433.681C1834.04 433.057 1833.52 431.071 1832.27 428.718Z"/><path fill="#BD0804" transform="matrix(1.04348 0 0 1.04237 -1721.74 -314.797)" d="M1658.25 428.678C1667.44 428.32 1685.97 426.814 1694.9 429.396C1696.74 429.928 1696.94 432.179 1697.52 434.071C1687.09 434.524 1674.46 435.606 1664.29 433.855C1660.62 433.225 1660.01 431.396 1658.25 428.678Z"/></g></svg>