<?xml version="1.0" encoding="utf-8" ?><svg xmlns="http://www.w3.org/2000/svg" xmlns:xlink="http://www.w3.org/1999/xlink" width="256" height="267" viewBox="0 0 256 267"><clipPath id="cl_3"><rect x="-7.6293945e-06" width="256" height="267"/></clipPath><g clip-path="url(#cl_3)"><path transform="matrix(1.04065 0 0 1.04297 -50.9919 -300.375)" d="M170.818 306.972C190.048 303.879 223.246 316.919 238.689 328.406C262.304 346.13 277.905 372.513 282.057 401.746C286.589 431.443 279.02 461.718 261.045 485.788C243.948 508.972 218.319 524.389 189.826 528.628C181.651 529.766 167.003 531.306 160.337 526.292L160.188 524.56C166.492 523.324 179.868 523.209 187.025 522.716C209.421 521.172 230.204 509.992 245.982 494.266C266.017 474.603 277.392 447.768 277.59 419.697C277.53 390.947 266.865 363.047 246.373 342.664C226.676 323.214 200.044 312.41 172.364 312.64C145.111 312.834 119.078 323.964 100.109 343.532C78.2006 366.098 69.819 392.139 70.3608 423.02C74.7787 467.857 95.7528 497.356 136.778 516.187C136.995 503.793 137.171 493.486 136.392 481.101C127.578 474.707 129.014 471 129.47 461.112C104.716 450.87 107.274 438.543 106.01 414.676C102.872 411.026 98.6997 406.833 98.0463 401.842C97.7643 399.783 98.3359 397.697 99.6287 396.068C102.807 392.043 107.725 391.638 112.47 390.87C112.192 380.588 110.065 363.084 120.139 357.051C132.88 356.656 130.459 382.87 130.18 391.242L149.788 391.26C149.389 382.636 146.695 359.397 158.554 356.928C169.984 359.466 167.386 382.324 166.795 390.756C187.154 394.204 183.506 402.051 173.568 415.307C172.904 439.548 174.2 450.555 150.117 461.105C151.023 478.037 151.637 472.936 143.732 480.647C140.332 483.963 145.211 508.539 141.159 517.269C131.812 526.113 111.973 509.413 104.673 503.354C81.8374 484.49 67.5204 457.257 64.9274 427.751C62.1496 397.71 71.5471 367.81 91.0119 344.759C112.714 319.027 138.171 309.75 170.818 306.972ZM174.045 407.583C175.704 405.02 174.899 400.31 174.606 397.008C152.237 396.756 128.904 396.271 106.598 396.969L105.144 398.019C104.964 401.175 104.516 403.613 106.127 406.356C112.679 409.13 163.776 407.785 174.045 407.583ZM160.563 448.896C169.145 436.411 167.431 427.732 166.913 412.773C148.903 412.758 130.493 413.057 112.543 412.669C112.316 434.856 111.255 456.722 140.637 455.765C150.049 455.459 153.164 455.077 160.563 448.896ZM161.014 393.261C161.419 385.709 162.963 371.125 159.989 364.833C158.265 363.383 158.336 363.365 156.262 362.569C155.394 370.848 153.569 383.103 157.104 390.503C158.776 391.958 159.066 392.252 161.014 393.261ZM123.424 392.23C124.361 384.059 126.332 371.772 122.582 364.445C121.457 363.838 120.59 363.307 119.386 362.864C118.049 370.784 115.949 382.467 119.346 389.803C121.135 391.348 121.228 391.399 123.424 392.23ZM144.445 473.673C144.536 470.124 145.137 465.239 143.178 462.473C140.566 460.624 138.313 461.055 135.003 461.091C134.915 464.696 134.36 468.866 136.149 471.806C138.428 473.992 141.271 473.628 144.445 473.673Z"/><path fill="#BD0804" transform="matrix(1.04065 0 0 1.04297 -50.9919 -300.375)" d="M229.288 364.163L231.677 365.452C234.306 371.888 225.549 405.382 223.708 413.421C232.854 413.298 239.636 413.279 248.711 414.033C241.653 430.441 213.28 470.944 202.559 486.743C202.149 486.318 200.55 484.578 200.486 484.237C198.646 474.412 207.596 444.312 209.712 435.974C204.089 435.992 190.261 436.798 186.038 433.728C186.709 425.199 222.683 373.661 229.288 364.163ZM216.224 430.27C214.901 441.951 210.764 453.144 209.832 463.996C220.051 449.405 229.984 434.616 239.624 419.637C231.544 418.998 225.126 418.997 216.998 419.062C218.094 412.444 223.256 391.28 221.725 386.883C211.451 400.931 202.418 415.28 193.365 430.136L216.224 430.27Z"/></g></svg>