<?xml version="1.0" encoding="utf-8" ?><svg xmlns="http://www.w3.org/2000/svg" xmlns:xlink="http://www.w3.org/1999/xlink" width="257" height="264" viewBox="0 0 257 264"><clipPath id="cl_7"><rect x="0.00012207031" y="3.0517578e-05" width="257" height="264"/></clipPath><g clip-path="url(#cl_7)"><path transform="matrix(1.04049 0 0 1.04348 -1375.52 -306.783)" d="M1430.74 306.98C1442.82 306.42 1453.81 306.935 1465.8 307.666C1466.93 315.191 1469.05 324.528 1470.56 332.129C1478.25 334.632 1484.48 337.489 1491.6 341.236C1497.86 336.396 1505.16 331.898 1511.87 327.594C1520.44 334.937 1531.32 347.932 1538.5 356.652C1534.61 363.244 1529.14 371.111 1524.86 377.625C1527.7 383.993 1529.72 389.857 1532.03 396.423C1564.43 402.136 1558.12 413.494 1555.01 441.653C1547.54 443.537 1539.55 445.158 1531.99 446.814C1529.63 454.064 1527.59 458.347 1524.3 465.259C1529.59 473.119 1532.59 477.731 1536.99 486.154C1527.41 496.921 1520.76 503.194 1509.64 512.361C1503.88 509.289 1495.42 503.385 1489.74 499.651C1484.17 502.523 1476.39 505.552 1470.46 508.026L1465.62 530.493C1452.89 530.932 1438.55 530.609 1425.7 530.551C1423.63 522.965 1422.28 515.873 1420.78 508.154C1413.18 505.519 1406.16 501.65 1399.17 497.745C1391.12 507.753 1388.65 517.388 1382.71 524.238C1378.86 528.692 1373.34 531.351 1367.45 531.582C1354.04 532.148 1341.69 521.01 1341.56 507.255C1341.39 488.219 1358.07 487.321 1369.52 477.796C1376.3 472.154 1384.14 463.134 1390.4 456.466C1385.72 448.503 1376.5 430.469 1382.47 422.012C1385.99 423.737 1390.67 444.741 1394.16 452.46L1427.48 418.826C1426.58 398.687 1435.1 378.22 1459.27 377.858C1463.22 377.799 1468.95 379.135 1471.66 382.132C1471.09 387.351 1459.39 397.415 1455 401.688L1460.16 411.627L1470.07 415.623C1474.15 411.295 1484.61 397.82 1490.74 400.339C1499.97 415.034 1486.26 439.556 1469.93 442.322C1462.69 443.548 1460.35 443.705 1452.98 443.537C1442.3 453.474 1431.8 464.726 1421.63 475.291C1438.76 483.092 1456.18 483.243 1473.07 474.423C1487.28 467.131 1498 454.471 1502.85 439.249C1519.05 387.186 1464.84 344.166 1415.43 369.107C1388.4 382.754 1389.83 415.154 1381.74 419.649C1379.52 413.172 1381.01 406.556 1383.59 400.335C1390.85 382.793 1402.1 368.449 1419.94 360.892C1436.11 354.059 1454.35 354.069 1470.51 360.92C1486.83 367.653 1499.76 380.673 1506.38 397.045C1512.91 412.997 1512.83 430.89 1506.16 446.785C1499.24 463.106 1486.04 475.955 1469.54 482.44C1451 489.603 1435.01 487.242 1417.49 479.491L1403.38 493.748C1410.29 497.713 1418.75 501.13 1426.16 504.328C1427.16 511.003 1428.87 518.521 1430.24 525.208L1461.03 525.195L1465.49 503.426C1474.78 500.373 1481.02 497.713 1489.67 493.301C1496.21 497.46 1502.69 501.714 1509.1 506.061L1530.22 485.067C1526.04 478.544 1522.05 471.895 1518.26 465.13C1522.22 457.159 1524.66 450.507 1527.52 442.125L1549.83 437.279C1550.71 427.192 1550.51 416.503 1550.52 406.336C1543.04 404.625 1535.53 403.073 1527.99 401.68C1525.3 393.638 1521.69 384.947 1518.56 376.984C1522.01 370.994 1527.8 362.899 1531.77 356.992C1524.87 349.609 1518.1 342.111 1511.45 334.502C1505.06 338.596 1498.1 343.599 1491.78 347.927C1482.05 342.661 1476.33 340.055 1465.91 336.555C1463.87 328.659 1462.59 320.911 1461.17 312.892C1451.05 312.438 1440.29 312.793 1430.11 312.956C1429.03 320.474 1427.19 328.917 1425.71 336.451C1415.47 339.674 1408.76 342.805 1399.4 347.844L1379.95 334.55L1359.24 356.921C1364.17 363.306 1368.62 370.631 1372.95 377.482C1369.21 385.909 1366.53 392.991 1363.41 401.688C1355.92 402.789 1348.43 404.659 1341.05 406.365C1340.34 416.151 1340.79 427.435 1341.43 437.201L1363.38 442.016C1366.23 448.141 1372.92 462.354 1371.67 468.652L1370.46 468.765C1365.12 463.649 1361.69 453.779 1358.9 446.869L1336.01 441.653C1335.89 428.204 1335.74 415.37 1336.3 401.925C1344.11 399.683 1350.83 398.288 1358.81 396.666C1361.41 389.487 1363.46 384.481 1366.69 377.57C1361.53 370.42 1357.37 364.032 1352.66 356.561C1360.7 346.122 1369.71 336.464 1379.57 327.715C1385.84 331.176 1393.14 336.889 1400.07 340.855C1407.99 337.045 1412.62 334.942 1420.92 332.175C1422.82 323.38 1421.75 310.193 1430.74 306.98ZM1433.21 420.003C1423.76 432.669 1408.53 446.227 1397.42 457.818C1388.13 467.181 1379.2 476.903 1369.29 485.624C1365.13 489.539 1355.33 490.549 1351.88 494.925C1336.89 513.955 1363.71 538.151 1380.05 518.919C1382.87 515.595 1385.03 507.386 1386.41 503.067C1406.44 482.457 1430.06 457.104 1450.91 437.824C1476.92 437.63 1484.78 433.18 1487.63 406.664C1483.11 411.128 1476.53 417.995 1471.88 421.949C1467.07 420.469 1460.59 418.679 1456.06 416.815C1453.51 411.658 1450.35 405.714 1448.49 400.352C1451.94 396.98 1458.78 390.961 1460.59 386.915L1460.28 385.091C1457.76 383.457 1455.3 384.145 1452.13 384.448C1433.62 394.442 1433.87 400.055 1433.21 420.003Z"/><path fill="#BD0804" transform="matrix(1.04049 0 0 1.04348 -1375.52 -306.783)" d="M1364.71 494.036C1381.43 494.228 1384.75 512.016 1367.37 520.508C1362.35 520.143 1360.41 519.068 1355.73 517.057L1352.78 506.146C1355.9 497.574 1356.28 497.067 1364.71 494.036ZM1366.38 513.21C1368.59 512.98 1370.5 511.571 1371.38 509.529C1372.26 507.487 1371.96 505.131 1370.6 503.372C1369.24 501.612 1367.04 500.725 1364.84 501.052C1361.55 501.543 1359.25 504.578 1359.67 507.884C1360.08 511.191 1363.07 513.556 1366.38 513.21Z"/></g></svg>