<?xml version="1.0" encoding="utf-8" ?><svg xmlns="http://www.w3.org/2000/svg" xmlns:xlink="http://www.w3.org/1999/xlink" width="267" height="258" viewBox="0 0 267 258"><clipPath id="cl_5"><rect width="267" height="258.00006"/></clipPath><g clip-path="url(#cl_5)"><path transform="matrix(1.04297 0 0 1.04032 -697.746 -296.492)" d="M843.472 356.155C840.565 343.139 859.495 330.021 867.65 320.915C875.538 312.107 886.303 302 898.277 310.167C916.523 322.612 870.27 366.067 861.114 369.284C858.26 368.861 857.912 368.696 855.412 367.243C853.152 369.969 850.671 373.422 848.493 376.291L848.391 400.299C861.51 412.523 880.415 420.196 855.694 434.217L908.394 434.197C909.769 460.902 909.013 494.288 908.388 521.161C836.9 522.735 759.381 521.219 687.437 521.198C686.199 468.859 686.1 404.465 688.709 352.575C729.681 350.737 771.113 351.781 812.141 351.479C816.752 351.445 825.719 351.052 829.048 354.075L828.021 355.702C817.644 361.282 773.493 358.133 759.575 358.054L759.557 393.759L797.306 393.656C808.553 369.799 811.029 367.945 831.614 385.404C833.543 369.459 832.846 369.003 843.472 356.155ZM837.416 395.323L826.176 409.759C832.387 406.409 837.093 403.851 842.955 399.918C842.433 383.688 840.717 376.198 851.342 363.149L848.207 359.744C836.359 373.186 837.358 377.184 837.416 395.323ZM860.688 363.325C868.666 355.755 902.569 326.454 894.486 315.12C891.641 312.964 888.78 312.67 885.223 312.877C871.965 324.836 860.339 337.821 848.35 351.016L860.688 363.325ZM772.743 457.701C789.914 453.649 814.187 443.2 831.338 436.359C837.987 433.865 857.255 428.396 859.998 423.015C860.735 416.075 850.278 409.34 845.285 405.47C840.766 408.245 822.012 421.668 818.373 414.719C819.13 407.732 827.098 398.807 831.786 393.347C826.202 388.641 818.32 381.614 812.564 377.537C804.503 391.909 777.061 442.99 772.743 457.701ZM834.039 475.116L901.595 475.152C904.002 471.276 903.199 446.132 903.277 439.722C880.817 439.637 857.723 439.28 835.317 439.831C832.861 446.81 833.838 466.801 834.039 475.116ZM722.802 515.546L791.297 515.615L791.309 480.316C769.411 480.164 744.703 479.651 722.907 480.258L722.802 515.546ZM797.011 480.297L796.937 515.584L865.829 515.584C865.685 503.878 865.42 492.051 865.797 480.359L797.011 480.297ZM722.783 434.164L776.761 434.1L783.177 421.268C786.612 414.316 790.783 406.364 793.888 399.363C770.192 399.043 746.493 399.033 722.797 399.331L722.783 434.164ZM759.932 439.736C759.672 451.532 759.531 463.33 759.51 475.129L828.686 475.229L828.657 451.641L828.397 446.19C820.216 439.813 746.803 490.22 773.635 439.854L759.932 439.736ZM717.194 399.385C709.329 399.293 701.509 399.149 693.646 399.373L693.56 434.137L717.158 434.178L717.194 399.385ZM693.582 480.281L693.564 515.581L717.315 515.566L717.262 480.468L693.582 480.281ZM753.725 393.734L753.779 358.043C734.077 358.011 713.293 357.646 693.675 358.131L693.629 393.689L753.725 393.734ZM870.897 515.55L903.061 515.597L903.078 480.263C892.398 480.021 881.714 480.034 871.034 480.303L870.897 515.55ZM753.781 475.278L753.846 439.745C734.278 439.739 713.022 439.295 693.602 439.764L693.554 475.28L753.781 475.278Z"/><path fill="#BD0804" transform="matrix(1.04297 0 0 1.04032 -697.746 -296.492)" d="M843.472 356.155C840.565 343.139 859.495 330.021 867.65 320.915C875.538 312.107 886.303 302 898.277 310.167C916.523 322.612 870.27 366.067 861.114 369.284C858.26 368.861 857.912 368.696 855.412 367.243L851.342 363.149L848.207 359.744L843.472 356.155ZM848.35 351.016L860.688 363.325C868.666 355.755 902.569 326.454 894.486 315.12C891.641 312.964 888.78 312.67 885.223 312.877C871.965 324.836 860.339 337.821 848.35 351.016Z"/></g></svg>