<?xml version="1.0" encoding="utf-8" ?><svg xmlns="http://www.w3.org/2000/svg" xmlns:xlink="http://www.w3.org/1999/xlink" width="251" height="257" viewBox="0 0 251 257"><clipPath id="cl_6"><rect x="0.00012207031" width="251" height="257"/></clipPath><g clip-path="url(#cl_6)"><path fill="#BD0804" transform="matrix(1.04149 0 0 1.04049 -1046.7 -302.781)" d="M1148.64 341.166C1151.32 339.351 1154.16 337.498 1157.59 338.159C1162.5 339.107 1228.53 405.741 1233.14 413.927C1234.42 416.214 1234.01 419.558 1233.15 421.904C1231.87 425.416 1228.48 428.715 1225.78 431.222L1222.24 435.237C1214.18 443.057 1209.41 448.635 1199.33 439.453C1176.44 418.622 1155.82 395.269 1134.27 373.072C1123.6 362.079 1137.85 352.06 1145.16 343.869L1148.64 341.166ZM1134.65 364.39C1146.74 379.104 1164.64 395.958 1177.92 409.839C1183.79 415.984 1203 434.998 1209.33 439.229C1215.88 432.777 1223.61 425.832 1228.1 417.92C1219.91 406.92 1163.32 347.617 1155.05 343.671C1147.7 350.763 1141.61 356.834 1134.65 364.39Z"/><path transform="matrix(1.04149 0 0 1.04049 -1046.7 -302.781)" d="M1039.7 417.743C1032.8 417.87 1014.54 418.888 1009.45 415.493L1009.36 413.977C1014.59 406.133 1035.06 385.746 1042.1 378.559C1065.95 354.082 1090.12 329.926 1114.61 306.095C1125.83 316.287 1139.13 329.681 1148.64 341.166L1145.16 343.869C1135.08 335.556 1123.84 323.217 1114.69 313.629C1083.39 344.377 1048.09 379.255 1018.5 411.547L1045.25 411.651L1045.3 520.306L1191.57 520.282C1191.21 500.477 1189.44 479.305 1194.8 460.343C1198.76 475.293 1197.16 509.148 1196.86 526.194C1144.51 526.798 1092.15 526.751 1039.8 526.055C1039.34 489.953 1039.3 453.846 1039.7 417.743Z"/><path transform="matrix(1.04149 0 0 1.04049 -1046.7 -302.781)" d="M1145.76 430.148C1165.99 436.088 1191.46 450.641 1211.15 459.525C1216.63 454.13 1223.24 447.932 1228.2 442.208L1222.24 435.237L1225.78 431.222C1241.85 445.293 1223.68 456.39 1212.27 466.144C1190.48 456.529 1168.93 446.388 1147.64 435.73L1136.55 447.214L1144.08 455.679C1136.61 463.645 1097.96 507.374 1089.28 507.724C1085.09 507.893 1080.08 505.516 1077.21 502.537C1074.55 499.782 1072.56 495.914 1072.55 492.023C1072.53 484.474 1112.55 445.502 1120.19 438.569C1121.51 437.364 1122.86 436.189 1124.24 435.045L1132.36 443.003C1136.76 438.57 1140.97 434.168 1145.76 430.148ZM1076.68 492.549C1081.03 497.988 1082.67 500.965 1089.57 502.676C1106.77 487.306 1120.37 470.57 1136.52 455.562C1132.92 452.006 1127.6 446.423 1123.94 443.224C1111.34 456.02 1087.21 479.224 1076.68 492.549Z"/></g></svg>