<?xml version="1.0" encoding="utf-8" ?><svg xmlns="http://www.w3.org/2000/svg" xmlns:xlink="http://www.w3.org/1999/xlink" width="234" height="242" viewBox="0 0 234 242"><clipPath id="cl_4"><rect x="6.1035156e-05" width="234" height="242"/></clipPath><g clip-path="url(#cl_4)"><path transform="matrix(1.04 0 0 1.0431 -394.16 -327.534)" d="M571.956 321.656C577.551 321.291 582.373 321.274 585.93 325.967C587.009 331.966 587.25 339.086 587.32 345.209C587.475 361.907 589.253 379.73 586.536 396.228C585.598 401.923 572.53 402.898 568.302 401.082C564.403 399.407 563.177 396.398 561.571 392.979C545.312 392.339 503.36 391.959 488.753 393.628C479.627 411.817 469.089 397.471 459.197 394.066C453.752 392.191 447.83 411.265 453.698 417.244C456.559 418.149 457.437 418.401 460.002 419.924C469.604 436.879 453.092 438.758 451.845 446.688C449.735 460.104 450.759 491.425 450.822 505.258C454.61 506.055 457.051 506.257 460.043 508.704C463.18 513.21 463.732 523.859 459.629 527.152C452.697 532.717 432.735 530.797 423.984 531.087C416.887 531.496 407.184 531.211 400.22 530.237C391.197 528.975 387.978 521.308 390.968 513.205C392.697 508.518 396.742 507.059 400.984 505.061C403.846 501.458 402.155 452.169 401.89 443.431C385.65 437.886 389.155 426.062 398.232 415.407C398.65 410.34 398.377 403.313 398.379 398.191C398.398 351.972 416.415 334.325 461.644 331.31L466.202 322.605C468.631 322.472 478.111 321.83 479.942 322.553C487.551 325.554 485.697 329.97 495.955 330.555C517.104 331.761 539.688 331.061 560.88 330.882C564.644 325.888 566.373 324.273 571.956 321.656ZM487.541 387.256L563.298 387.202C563.316 370.938 563.695 352.682 562.832 336.604C538.226 336.607 512.077 336.151 487.604 336.642L487.541 387.256ZM469.263 395.627L481.939 395.652L481.987 328.214L469.44 328.128C469.003 349.755 468.167 374.193 469.263 395.627ZM442.734 506.198L444.711 505.831C446.469 500.245 445.377 452.555 445.363 442.48C435.52 441.595 422.99 441.945 412.918 441.965L408.421 442.615C406.799 446.134 407.736 498.135 407.702 506.126L442.734 506.198ZM568.442 328.201C568.307 349.657 567.606 374.474 568.648 395.687L581.827 395.585C581.912 373.081 581.872 350.577 581.708 328.074L568.442 328.201ZM456.459 525.125L456.519 511.982C436.647 511.804 416.775 511.792 396.904 511.948L397.247 525.141C416.984 525.423 436.723 525.417 456.459 525.125ZM397.193 435.986C416.68 436.084 436.891 436.81 456.24 435.925L456.041 423.718L397.375 423.722L397.193 435.986ZM463.157 337.5C460.799 337.522 452.308 337.449 450.459 337.82C402.742 344.348 403.895 379.168 404.111 417.971L416.953 418.029L446.321 418.047C445.731 399.264 443.405 391.921 463.121 386.247L463.157 337.5Z"/><path transform="matrix(1.04 0 0 1.0431 -394.16 -327.534)" d="M522.824 343.557C529.218 343.248 547.347 342.749 551.524 347.6C549.275 349.492 547.039 349.248 543.984 349.454C536.613 349.606 517.741 350.506 511.654 346.491L511.929 345.487C515.624 343.428 518.585 343.689 522.824 343.557Z"/><path transform="matrix(1.04 0 0 1.0431 -394.16 -327.534)" d="M441.905 347.553L444.406 348.73C446.322 354.276 435.066 356.715 430.047 361.642C422.178 369.366 420.812 377.136 417.596 387.397C416.5 386.641 415.439 385.637 414.424 384.751C407.471 368.919 430.156 353.777 441.905 347.553Z"/><path fill="#BD0804" transform="matrix(1.04 0 0 1.0431 -394.16 -327.534)" d="M501.079 429.877C510.453 436.877 524.846 464.957 527.068 476.786C530.525 495.186 520.173 506.314 502.225 509.615C496.554 509.469 488.365 506.861 484.106 503.208C462.319 484.518 488.714 445.501 501.079 429.877ZM503.244 504.014C521.714 496.702 525.154 485.62 517.94 467.303C515.333 460.683 506.416 444.095 501.066 440.17C487.917 461.16 462.831 496.757 503.244 504.014Z"/><path fill="#BD0804" transform="matrix(1.04 0 0 1.0431 -394.16 -327.534)" d="M486.69 478.365C491.964 480.096 492.824 484.727 494.793 489.539C501.627 492.139 502.598 491.281 504.671 498.017C491.261 497.212 486.07 491.628 486.69 478.365Z"/><path transform="matrix(1.04 0 0 1.0431 -394.16 -327.534)" d="M537.656 406.351L538.326 406.553C549.711 409.89 570.352 448.164 541.168 457.564C537.77 457.511 531.334 455.974 528.621 453.963C512.635 442.118 529.701 417.463 537.656 406.351ZM540.384 452.242C557.273 442.22 550.209 426.747 538.691 415.302C530.734 428.141 517.683 446.246 540.384 452.242Z"/></g></svg>